# xmcd
#
# Track frame offsets:
#	150
#	12741
#	26634
#	41205
#	58576
#	77988
#	97092
#	115557
#	127624
#	143824
#	156415
#	170308
#	184879
#	202250
#	221662
#	240766
#	259231
#	271298
#
# Disc length: 3833 seconds
#
# Revision: 1
# Processed by: cddbd v1.5.2PL0 Copyright (c) Steve Scherf et al.
# Submitted via: audiograbber 1.83.01
#
DISCID=040ef712
DTITLE=Various Artist - Chart Hits Country - Vol 20803
DYEAR=2008
DGENRE=Karaoke
TTITLE0=Kenny Chesney - Everybody Wants To Go To Heaven
TTITLE1=Kristy Lee Cook - 15 Minutes of Shame
TTITLE2=Luke Bryan - Country Man
TTITLE3=Trace Adkins - Muddy Water
TTITLE4=Rebecca Lynn Howard - Sing Cause I Love To
TTITLE5=Billy Ray Cyrus - Somebody Said A Prayer
TTITLE6=LeAnne Rimes - What I Cannot Change
TTITLE7=Roys - I Only Have Good Days
TTITLE8=Keith Anderson - C'mon!
TTITLE9=x
TTITLE10=x
TTITLE11=x
TTITLE12=x
TTITLE13=x
TTITLE14=x
TTITLE15=x
TTITLE16=x
TTITLE17=x
EXTD=
EXTT0=
EXTT1=
EXTT2=
EXTT3=
EXTT4=
EXTT5=
EXTT6=
EXTT7=
EXTT8=
EXTT9=
EXTT10=
EXTT11=
EXTT12=
EXTT13=
EXTT14=
EXTT15=
EXTT16=
EXTT17=
PLAYORDER=
